<?xml version="1.0" encoding="utf-8"?>
<!-- Generator: Adobe Illustrator 27.9.0, SVG Export Plug-In . SVG Version: 6.00 Build 0)  -->
<svg version="1.1" xmlns="http://www.w3.org/2000/svg" xmlns:xlink="http://www.w3.org/1999/xlink" x="0px" y="0px"
	 viewBox="0 0 1920 1080" style="enable-background:new 0 0 1920 1080;" xml:space="preserve">
<style type="text/css">
	.st0{opacity:0.85;}
	.st1{fill:#5E5F5F;}
	.st2{fill:none;stroke:#FFFFFF;stroke-width:5;stroke-linecap:round;stroke-miterlimit:10;}
	.st3{fill:#F15A29;}
	.st4{font-family:'RevolutionGothic-ExtraBold';}
	.st5{font-size:18px;}
	.st6{fill:#181818;}
	.st7{fill:#FFFFFF;}
	.st8{fill:#181818;fill-opacity:0.85;stroke:#000000;stroke-width:5;stroke-miterlimit:10;}
	.st9{fill:none;stroke:#000000;stroke-width:2;stroke-miterlimit:10;}
	.st10{fill:#F9EF69;}
	.st11{fill:#60BB46;}
	.st12{fill:none;stroke:#5E5F5F;stroke-width:3;stroke-miterlimit:10;}
	.st13{fill:none;stroke:#5E5F5F;stroke-width:7;stroke-miterlimit:10;}
	.st14{fill:none;stroke:#5E5F5F;stroke-width:7;stroke-miterlimit:10;stroke-dasharray:12.28,12.28;}
	.st15{fill:#5E6060;}
	.st16{opacity:0.85;fill:#231F20;}
	.st17{fill:#39B54A;}
	.st18{fill:url(#leaderboard-preferred-car_00000088816376372131917100000001680714303980444326_);}
	.st19{fill:#40403F;}
	.st20{font-family:'RevolutionGothic-ExtraBoldIt';}
	.st21{font-size:12px;}
	.st22{fill:none;stroke:#000000;stroke-miterlimit:10;}
	.st23{fill:#FFFFFF;stroke:#000000;stroke-width:2;stroke-miterlimit:10;}
	.st24{fill:none;stroke:#FFFFFF;stroke-width:4;stroke-miterlimit:10;}
	
		.st25{fill:url(#voice-of-background_00000123442261943472655780000017911873433182641839_);fill-opacity:0.85;stroke:url(#voice-of-background_00000005237218099156200540000007536475448567113385_);stroke-width:5;stroke-miterlimit:10;}
</style>
<g id="Misc">
	<g id="generic-background">
		<polygon class="st0" points="452.5,221.5 452.5,180.96 469.11,162.5 511.5,162.5 511.5,203.04 494.89,221.5 		"/>
		<path class="st1" d="M509,165v37.08L493.77,219H455v-37.08L470.23,165H509 M514,160h-46l-18,20v44h46l18-20V160L514,160z"/>
	</g>
</g>
<g id="HUD_Overlay">
	<g id="spotter-indicator">
		<g>
			<line class="st2" x1="400" y1="572" x2="432" y2="540"/>
			<line class="st2" x1="400" y1="540" x2="432" y2="572"/>
		</g>
		<g>
			<line class="st2" x1="440.73" y1="572" x2="472.73" y2="540"/>
			<line class="st2" x1="440.73" y1="540" x2="472.73" y2="572"/>
		</g>
		<g>
			<line class="st2" x1="481.45" y1="572" x2="513.45" y2="540"/>
			<line class="st2" x1="481.45" y1="540" x2="513.45" y2="572"/>
		</g>
	</g>
	<g id="Background_00000129169557785269733630000003818459118295538067_">
		<path d="M416,499c-8.27,0-15-6.73-15-15v-28c0-8.27,6.73-15,15-15h683c8.27,0,15,6.73,15,15v28c0,8.27-6.73,15-15,15H416z"/>
		<path class="st1" d="M1099,442c7.72,0,14,6.28,14,14v28c0,7.72-6.28,14-14,14H416c-7.72,0-14-6.28-14-14v-28c0-7.72,6.28-14,14-14
			H1099 M1099,440H416c-8.84,0-16,7.16-16,16v28c0,8.84,7.16,16,16,16h683c8.84,0,16-7.16,16-16v-28
			C1115,447.16,1107.84,440,1099,440L1099,440z"/>
	</g>
	<g>
		<text transform="matrix(1 0 0 1 1054.6626 463.6816)" class="st3 st4 st5">Gear</text>
		<text transform="matrix(1 0 0 1 424.6626 463.6816)" class="st3 st4 st5">Fuel</text>
		<text transform="matrix(1 0 0 1 528.0081 463.6814)" class="st3 st4 st5">Lead</text>
		<text transform="matrix(1 0 0 1 845.6141 463.6814)" class="st3 st4 st5">RPM</text>
		<text transform="matrix(1 0 0 1 944.1451 463.6814)" class="st3 st4 st5">Speed</text>
		<text transform="matrix(1 0 0 1 630.8049 463.6814)" class="st3 st4 st5">Gap +</text>
		<text transform="matrix(1 0 0 1 736.7966 463.6814)" class="st3 st4 st5">Gap -</text>
	</g>
</g>
<g id="Race_Status">
	<g id="race-status-background">
		<g id="Background">
			<polygon class="st6" points="42.5,256.5 42.5,42.5 356.5,42.5 356.5,238.37 339.91,256.5 			"/>
			<path d="M354,45v192.4L338.81,254H45V45H354 M359,40H40v219h301.01L359,239.34V40L359,40z"/>
		</g>
		<g id="Series_Background">
			<rect x="45" y="44" class="st7" width="309" height="105"/>
		</g>
		<line id="Big_Divider" class="st8" x1="40" y1="152" x2="359" y2="152"/>
		<g id="Small_Divider">
			<line class="st9" x1="344" y1="206" x2="55" y2="206"/>
		</g>
	</g>
	<g id="race-status-white-light">
		<circle class="st7" cx="330.5" cy="181.5" r="10.5"/>
	</g>
	<g id="race-status-yellow-light">
		<circle class="st10" cx="330.5" cy="181.5" r="10.5"/>
	</g>
	<g id="race-status-green-light">
		<circle class="st11" cx="330.5" cy="181.5" r="10.5"/>
	</g>
	<g id="race-status-black-light">
		<circle cx="330.5" cy="181.5" r="10"/>
		<path class="st7" d="M330.5,172c5.24,0,9.5,4.26,9.5,9.5s-4.26,9.5-9.5,9.5s-9.5-4.26-9.5-9.5S325.26,172,330.5,172 M330.5,171
			c-5.8,0-10.5,4.7-10.5,10.5s4.7,10.5,10.5,10.5s10.5-4.7,10.5-10.5S336.3,171,330.5,171L330.5,171z"/>
	</g>
</g>
<g id="Leaderboard_Overlay">
	<g id="leaderboard-position-splitter">
		<g id="Position_Splitter_00000044144644301241049060000000494847145522205862_">
			<line class="st12" x1="40" y1="450" x2="359" y2="450"/>
		</g>
		<g id="Position_Splitter">
			<g>
				<line class="st13" x1="40" y1="450" x2="46" y2="450"/>
				<line class="st14" x1="58.28" y1="450" x2="346.86" y2="450"/>
				<line class="st13" x1="353" y1="450" x2="359" y2="450"/>
			</g>
		</g>
	</g>
	<g id="leaderboard-heading">
		<polygon class="st7" points="42.5,326.5 42.5,300.96 59.11,282.5 356.5,282.5 356.5,308.04 339.89,326.5 		"/>
		<path class="st15" d="M354,285v22.08L338.77,324H45v-22.08L60.23,285H354 M359,280H58l-18,20v29h301l18-20V280L359,280z"/>
	</g>
	<g id="leaderboard-current-target">
		<g id="leaderboard-current-target-speed">
			<path class="st16" d="M339.65,408.5l16.85-18.53V364.5h88.96c7.19,0,13.04,5.94,13.04,13.24v17.53c0,7.3-5.85,13.24-13.04,13.24
				H339.65z"/>
			<path class="st15" d="M445.46,367c5.81,0,10.54,4.82,10.54,10.74v17.53c0,5.92-4.73,10.74-10.54,10.74H345.3l12.4-13.64l1.3-1.43
				V389v-22H445.46 M445.46,362H354v27l-20,22h111.46c8.58,0,15.54-7.05,15.54-15.74v-17.53C461,369.05,454.04,362,445.46,362
				L445.46,362z"/>
		</g>
		<g id="leaderboard-current-target-outline">
			<path class="st17" d="M354,367v22.08L338.77,406H45v-22.08L60.23,367H354 M359,362H58l-18,20v29h301l18-20V362L359,362z"/>
		</g>
	</g>
	<path id="leaderboard-car-number-space" class="st7" d="M136.63,400H95.37c-2.41,0-4.37-1.96-4.37-4.37v-19.26
		c0-2.41,1.96-4.37,4.37-4.37h41.26c2.41,0,4.37,1.96,4.37,4.37v19.26C141,398.04,139.04,400,136.63,400z"/>
	
		<linearGradient id="leaderboard-preferred-car_00000022536301788086215090000006733023107964138135_" gradientUnits="userSpaceOnUse" x1="45" y1="386.5" x2="359" y2="386.5">
		<stop  offset="0" style="stop-color:#FFFFFF"/>
		<stop  offset="0.6" style="stop-color:#FFFFFF"/>
		<stop  offset="0.95" style="stop-color:#737070;stop-opacity:0"/>
		<stop  offset="1" style="stop-color:#000000;stop-opacity:0"/>
	</linearGradient>
	
		<rect id="leaderboard-preferred-car" x="45" y="367" style="fill:url(#leaderboard-preferred-car_00000022536301788086215090000006733023107964138135_);" width="314" height="39"/>
</g>
<g id="Pit_Lane_Overlay">
	<g id="pit-lane-background">
		<rect x="45" y="550" class="st7" width="100" height="18"/>
		<text transform="matrix(1 0 0 1 77.1497 563.2)" class="st19 st20 st21">Pit Road</text>
		<line class="st22" x1="45" y1="550.5" x2="145" y2="550.5"/>
		<line class="st22" x1="45" y1="567.5" x2="145" y2="567.5"/>
	</g>
</g>
<g id="Track_Map_Overlay">
	<circle id="track-map-car" class="st23" cx="56" cy="506" r="16"/>
	<circle id="track-map-target_00000179641946246250401240000017151977930488662200_" class="st24" cx="101.93" cy="506" r="16"/>
	<g id="track-map-road">
		<rect x="45" y="580" class="st7" width="2" height="6"/>
		<line class="st22" x1="45" y1="580.5" x2="47" y2="580.5"/>
		<line class="st22" x1="45" y1="585.5" x2="47" y2="585.5"/>
	</g>
</g>
<g id="Voice_Of_Overlay">
	
		<linearGradient id="voice-of-background_00000020398022367573505890000004611972839606296966_" gradientUnits="userSpaceOnUse" x1="450" y1="85.5" x2="917" y2="85.5">
		<stop  offset="0" style="stop-color:#FFFFFF"/>
		<stop  offset="1" style="stop-color:#FFFFFF;stop-opacity:0"/>
	</linearGradient>
	
		<linearGradient id="voice-of-background_00000049902171910393936780000004041791152059503763_" gradientUnits="userSpaceOnUse" x1="447.5" y1="85.5" x2="919.5" y2="85.5">
		<stop  offset="0" style="stop-color:#231F20"/>
		<stop  offset="1" style="stop-color:#231F20;stop-opacity:0"/>
	</linearGradient>
	
		<polygon id="voice-of-background" style="fill:url(#voice-of-background_00000020398022367573505890000004611972839606296966_);fill-opacity:0.85;stroke:url(#voice-of-background_00000049902171910393936780000004041791152059503763_);stroke-width:5;stroke-miterlimit:10;" points="
		450,131 450,60 468.01,40 917,40 917,111 898.99,131 	"/>
</g>
</svg>
